<?xml version="1.0" standalone="no"?>
<!DOCTYPE svg PUBLIC "-//W3C//DTD SVG 20010904//EN"
 "http://www.w3.org/TR/2001/REC-SVG-20010904/DTD/svg10.dtd">
<svg version="1.0" xmlns="http://www.w3.org/2000/svg"
 width="700.000000pt" height="700.000000pt" viewBox="0 0 700.000000 700.000000"
 preserveAspectRatio="xMidYMid meet">
<metadata>
Created by potrace 1.14, written by Peter Selinger 2001-2017
</metadata>
<g transform="translate(0.000000,700.000000) scale(0.100000,-0.100000)"
fill="#000000" stroke="none">
<path d="M1239 6119 c-139 -20 -288 -150 -342 -297 -20 -57 -21 -58 -22 -2292
0 -1229 3 -2259 8 -2289 23 -155 178 -321 333 -357 43 -10 4491 -11 4548 -1
145 25 285 147 339 295 20 57 20 58 22 2292 0 1578 -2 2253 -10 2295 -27 150
-143 283 -293 338 -57 20 -58 20 -2298 21 -1232 1 -2261 -2 -2285 -5z m4449
-2620 l0 -2188 -2188 1 -2187 1 0 2187 -1 2187 2189 0 2188 1 -1 -2189z"/>
<path d="M3995 5170 l-129 -130 44 -45 c25 -26 125 -126 222 -223 l178 -177
-222 -222 -223 -223 132 -131 131 -132 223 222 223 222 215 -215 c119 -119
219 -219 223 -222 4 -4 66 52 137 124 l130 130 -219 220 c-121 121 -220 222
-220 225 0 4 99 105 219 225 l220 219 -132 132 -131 132 -222 -222 -223 -223
-222 222 c-121 122 -222 222 -223 222 -1 0 -60 -58 -131 -130z"/>
<path d="M1759 4760 c-4 -76 -3 -334 2 -341 3 -5 296 -8 715 -7 l709 3 0 180
0 180 -712 0 c-635 1 -713 -1 -714 -15z"/>
<path d="M2290 2990 l0 -320 -320 0 -320 0 0 -183 0 -183 320 1 320 0 0 -322
0 -321 179 1 c155 0 180 3 183 16 2 9 4 152 3 319 0 201 3 302 10 303 5 1 150
2 320 3 l310 1 0 183 1 182 -321 0 -321 0 1 320 0 320 -182 0 -183 0 0 -320z"/>
<path d="M3883 3062 c-13 -2 -23 -9 -24 -15 -3 -59 0 -339 4 -344 11 -10 1457
-9 1458 2 0 6 1 88 2 184 l1 174 -710 1 c-390 0 -719 0 -731 -2z"/>
<path d="M3859 2260 c-3 -71 0 -332 5 -337 7 -8 1440 -8 1452 -1 7 5 11 247 5
338 -1 13 -89 15 -731 15 -642 0 -730 -2 -731 -15z"/>
</g>
</svg>
