<svg width="32" height="32" viewBox="0 0 32 32" fill="none" xmlns="http://www.w3.org/2000/svg">
<rect x="0.5" y="0.5" width="31" height="31" rx="3.5" stroke="#7A7A7A"/>
<path d="M22.9836 10.2857H18.9167V8.57143C18.9167 8.41988 18.8552 8.27453 18.7458 8.16737C18.6364 8.0602 18.488 8 18.3333 8H13.6667C13.512 8 13.3636 8.0602 13.2542 8.16737C13.1448 8.27453 13.0833 8.41988 13.0833 8.57143V10.2857H9.01641L9 11.7143H10.2031L10.9356 22.9286C10.9541 23.2186 11.0847 23.4908 11.3008 23.6898C11.5169 23.8888 11.8023 23.9998 12.099 24H19.901C20.1975 24 20.4828 23.8894 20.699 23.6907C20.9153 23.492 21.0462 23.2202 21.0652 22.9304L21.7969 11.7143H23L22.9836 10.2857ZM13.0833 21.7143L12.7552 12.5714H13.9583L14.2865 21.7143H13.0833ZM16.5833 21.7143H15.4167V12.5714H16.5833V21.7143ZM17.4583 10.2857H14.5417V9.28571C14.5417 9.24783 14.557 9.21149 14.5844 9.1847C14.6117 9.15791 14.6488 9.14286 14.6875 9.14286H17.3125C17.3512 9.14286 17.3883 9.15791 17.4156 9.1847C17.443 9.21149 17.4583 9.24783 17.4583 9.28571V10.2857ZM18.9167 21.7143H17.7135L18.0417 12.5714H19.2448L18.9167 21.7143Z" fill="#7A7A7A"/>
</svg>
