<svg width="32" height="32" viewBox="0 0 32 32" fill="none" xmlns="http://www.w3.org/2000/svg">
<rect x="0.5" y="0.5" width="31" height="31" rx="3.5" stroke="#7A7A7A"/>
<g clip-path="url(#clip0_687_2434)">
<path d="M17.4286 13H9.57143C8.70479 13 8 13.7048 8 14.5714V22.4286C8 23.2952 8.70479 24 9.57143 24H17.4286C18.2952 24 19 23.2952 19 22.4286V14.5714C19 13.7048 18.2952 13 17.4286 13Z" fill="#7A7A7A"/>
<path d="M22.4286 8H14.5714C14.1547 8 13.755 8.16556 13.4603 8.46026C13.1656 8.75496 13 9.15466 13 9.57143V11.1429H19.2857C19.7025 11.1429 20.1022 11.3084 20.3969 11.6031C20.6916 11.8978 20.8571 12.2975 20.8571 12.7143V19H22.4286C22.8453 19 23.245 18.8344 23.5397 18.5397C23.8344 18.245 24 17.8453 24 17.4286V9.57143C24 9.15466 23.8344 8.75496 23.5397 8.46026C23.245 8.16556 22.8453 8 22.4286 8Z" fill="#7A7A7A"/>
</g>
<defs>
<clipPath id="clip0_687_2434">
<rect width="16" height="16" fill="white" transform="translate(8 8)"/>
</clipPath>
</defs>
</svg>
