<svg width="16" height="9" viewBox="0 0 16 9" fill="none" xmlns="http://www.w3.org/2000/svg">
<path d="M7.98745 8.99696C7.72089 8.99755 7.46255 8.89297 7.2573 8.7014L0.412139 2.27615C0.179156 2.05803 0.0326414 1.74459 0.00482755 1.40479C-0.0229863 1.06498 0.0701785 0.726655 0.263827 0.464227C0.457475 0.201798 0.735743 0.0367669 1.03742 0.00543771C1.33909 -0.0258915 1.63946 0.0790476 1.87244 0.29717L7.98745 6.05419L14.1025 0.502779C14.2192 0.396035 14.3534 0.316321 14.4976 0.26822C14.6417 0.220118 14.7929 0.204577 14.9423 0.222489C15.0918 0.240402 15.2367 0.291414 15.3686 0.372596C15.5005 0.453777 15.6169 0.563527 15.7111 0.695536C15.8156 0.827667 15.8947 0.982678 15.9435 1.15086C15.9923 1.31904 16.0098 1.49676 15.9948 1.67289C15.9798 1.84903 15.9327 2.01977 15.8564 2.17444C15.7801 2.3291 15.6762 2.46435 15.5514 2.57171L8.70619 8.7785C8.49504 8.9398 8.24198 9.01671 7.98745 8.99696Z" fill="#26A889"/>
</svg>
