<svg width="9" height="16" viewBox="0 0 9 16" fill="none" xmlns="http://www.w3.org/2000/svg">
<path d="M8.99696 8.01255C8.99755 8.27911 8.89297 8.53745 8.7014 8.7427L2.27615 15.5879C2.05803 15.8208 1.74459 15.9674 1.40479 15.9952C1.06498 16.023 0.726655 15.9298 0.464227 15.7362C0.201798 15.5425 0.0367669 15.2643 0.00543773 14.9626C-0.0258914 14.6609 0.0790476 14.3605 0.29717 14.1276L6.0542 8.01255L0.502779 1.89754C0.396035 1.78084 0.316321 1.64657 0.26822 1.50243C0.220118 1.35829 0.204577 1.20714 0.22249 1.05766C0.240402 0.908171 0.291415 0.763301 0.372596 0.631375C0.453778 0.499451 0.563527 0.38307 0.695536 0.288922C0.827667 0.184443 0.982678 0.105314 1.15086 0.0564938C1.31904 0.00767328 1.49676 -0.00978468 1.67289 0.00520899C1.84903 0.0202036 2.01977 0.0673275 2.17444 0.143632C2.3291 0.219936 2.46435 0.323777 2.57171 0.448645L8.7785 7.29381C8.9398 7.50496 9.01671 7.75802 8.99696 8.01255Z" fill="black"/>
</svg>
