<svg width="9" height="16" viewBox="0 0 9 16" fill="none" xmlns="http://www.w3.org/2000/svg">
<path d="M0.00304041 7.98745C0.0024539 7.72089 0.107025 7.46256 0.298601 7.2573L6.72385 0.412139C6.94197 0.179156 7.25541 0.0326414 7.59521 0.00482757C7.93502 -0.0229863 8.27334 0.0701785 8.53577 0.263827C8.7982 0.457475 8.96323 0.735743 8.99456 1.03742C9.02589 1.33909 8.92095 1.63946 8.70283 1.87244L2.94581 7.98745L8.49722 14.1025C8.60396 14.2192 8.68368 14.3534 8.73178 14.4976C8.77988 14.6417 8.79542 14.7929 8.77751 14.9423C8.7596 15.0918 8.70859 15.2367 8.6274 15.3686C8.54622 15.5005 8.43647 15.6169 8.30446 15.7111C8.17233 15.8156 8.01732 15.8947 7.84914 15.9435C7.68096 15.9923 7.50324 16.0098 7.32711 15.9948C7.15097 15.9798 6.98023 15.9327 6.82556 15.8564C6.6709 15.7801 6.53565 15.6762 6.42829 15.5514L0.2215 8.70619C0.0602046 8.49504 -0.0167111 8.24198 0.00304041 7.98745Z" fill="black"/>
</svg>
