<svg width="16" height="9" viewBox="0 0 16 9" fill="none" xmlns="http://www.w3.org/2000/svg">
<path d="M8.01255 0.00304101C8.27911 0.00245448 8.53744 0.107026 8.7427 0.298602L15.5879 6.72385C15.8208 6.94197 15.9674 7.25541 15.9952 7.59521C16.023 7.93502 15.9298 8.27334 15.7362 8.53577C15.5425 8.7982 15.2643 8.96323 14.9626 8.99456C14.6609 9.02589 14.3605 8.92095 14.1276 8.70283L8.01255 2.94581L1.89754 8.49722C1.78084 8.60397 1.64657 8.68368 1.50243 8.73178C1.35829 8.77988 1.20714 8.79542 1.05766 8.77751C0.908171 8.7596 0.763301 8.70859 0.631375 8.62741C0.499451 8.54622 0.38307 8.43647 0.288922 8.30447C0.184442 8.17233 0.105314 8.01732 0.0564937 7.84914C0.00767315 7.68097 -0.00978483 7.50324 0.00520882 7.32711C0.0202034 7.15098 0.0673273 6.98023 0.143632 6.82556C0.219936 6.6709 0.323777 6.53565 0.448644 6.42829L7.29381 0.2215C7.50496 0.0602052 7.75802 -0.0167105 8.01255 0.00304101Z" fill="black"/>
</svg>
