<svg width="14" height="16" viewBox="0 0 14 16" fill="none" xmlns="http://www.w3.org/2000/svg">
<path fill-rule="evenodd" clip-rule="evenodd" d="M7 0C7.55229 0 8 0.413276 8 0.923077V9.35037L11.6748 6.38224C12.0905 6.04653 12.7222 6.08541 13.0859 6.46907C13.4496 6.85274 13.4075 7.4359 12.9918 7.77161L7.6585 12.0793C7.28148 12.3838 6.71852 12.3838 6.3415 12.0793L1.00816 7.77161C0.592525 7.4359 0.550408 6.85274 0.91409 6.46907C1.27777 6.08541 1.90953 6.04653 2.32517 6.38224L6 9.35037V0.923077C6 0.413276 6.44772 0 7 0ZM0 15.0769C0 14.5671 0.447715 14.1538 1 14.1538H13C13.5523 14.1538 14 14.5671 14 15.0769C14 15.5867 13.5523 16 13 16H1C0.447715 16 0 15.5867 0 15.0769Z" fill="black"/>
</svg>
