<svg width="16" height="13" viewBox="0 0 16 13" fill="none" xmlns="http://www.w3.org/2000/svg">
<path d="M13.5129 0.414466C13.7894 0.145686 14.1573 -0.00290628 14.5391 4.30801e-05C14.9208 0.00299244 15.2865 0.157253 15.559 0.430275C15.8315 0.703296 15.9894 1.07372 15.9995 1.46339C16.0096 1.85306 15.871 2.23149 15.6131 2.51883L7.78171 12.5196C7.64705 12.6677 7.48452 12.7866 7.30384 12.8691C7.12317 12.9515 6.92805 12.996 6.73017 12.9997C6.53229 13.0035 6.3357 12.9664 6.15215 12.8908C5.96861 12.8152 5.80188 12.7026 5.66194 12.5597L0.468524 7.25667C0.323895 7.11906 0.207893 6.95311 0.127436 6.76873C0.0469793 6.58435 0.00371646 6.38531 0.000229091 6.18349C-0.00325828 5.98166 0.0331013 5.78119 0.107138 5.59402C0.181175 5.40686 0.291372 5.23684 0.431156 5.0941C0.570941 4.95137 0.737448 4.83885 0.920745 4.76325C1.10404 4.68765 1.30037 4.65052 1.49803 4.65408C1.69568 4.65764 1.89061 4.70182 2.07118 4.78397C2.25175 4.86613 2.41427 4.98458 2.54903 5.13226L6.65902 9.32697L13.4756 0.458558C13.4879 0.443128 13.501 0.428407 13.5149 0.414466H13.5129Z" fill="black"/>
</svg>
